<svg width="188" height="36" viewBox="0 0 188 36" fill="none" xmlns="http://www.w3.org/2000/svg">
<path d="M4.94971 19.6309C6.33016 19.6309 7.4809 19.319 8.40193 18.6963C9.32296 18.0736 10.011 17.2398 10.4672 16.197C10.9223 15.1531 11.1498 13.9943 11.1498 12.7209C11.1498 11.4528 10.9223 10.2973 10.4672 9.25449C10.011 8.21057 9.32296 7.37782 8.40193 6.75515C7.4809 6.1314 6.33016 5.81952 4.94971 5.81952H2.09127V19.6309H4.94971ZM13.2519 12.7209C13.2519 14.0853 12.942 15.3317 12.3223 16.459C11.7014 17.5863 10.7923 18.4884 9.59493 19.1641C8.39651 19.8388 6.92179 20.2015 5.17075 20.2503H0V5.18927H5.17075V5.2001C6.92179 5.24233 8.39651 5.60077 9.59493 6.2765C10.7923 6.95223 11.7014 7.85429 12.3223 8.98159C12.942 10.1089 13.2519 11.3542 13.2519 12.7209Z" fill="#D6D0BE"/>
<path d="M17.6696 5.18927H19.7826V20.2503H17.6696V5.18927Z" fill="#D6D0BE"/>
<path d="M31.2878 19.358L36.4683 5.18927H37.1412L31.6237 20.2503H31.614H29.4696L23.963 5.18927H26.1073L31.2878 19.358Z" fill="#D6D0BE"/>
<path d="M41.353 5.18927H43.466V20.2503H41.353V5.18927Z" fill="#D6D0BE"/>
<path d="M58.7257 17.0059V5.18927H59.3564V20.2503H58.7257L48.6476 8.42498V20.2503H48.0267V5.18927H48.6476L58.7257 17.0059Z" fill="#D6D0BE"/>
<path d="M66.756 12.8042H71.6743L69.2157 6.08266L66.756 12.8042ZM71.0328 5.18927L76.5406 20.2503H74.3962L71.8954 13.4237H66.5252L64.0341 20.2503H63.3612L68.869 5.18927H68.8896H71.0328Z" fill="#D6D0BE"/>
<path d="M123.45 5.18927V5.81952H118.5V20.2503H116.41V5.81952H111.459V5.18927H123.45Z" fill="#D6D0BE"/>
<path d="M138.563 5.18927V5.81952H130.438V12.6147H137.679V13.245H130.438V19.6211H138.563V20.2503H128.326V5.18927H138.563Z" fill="#D6D0BE"/>
<path d="M145.408 5.80977V12.4999H149.065C149.682 12.4999 150.242 12.3472 150.747 12.043C151.251 11.7387 151.654 11.3337 151.955 10.8301C152.257 10.3255 152.407 9.76561 152.407 9.14944C152.407 8.53327 152.257 7.97341 151.955 7.46877C151.654 6.96414 151.251 6.56239 150.747 6.26134C150.242 5.96029 149.682 5.80977 149.065 5.80977H145.408ZM149.023 13.1194L155.55 20.2611H152.733L146.186 13.1194H145.408V20.2503H143.316V5.18927L149.128 5.17952C150.376 5.1936 151.394 5.37661 152.187 5.73072C152.978 6.08374 153.561 6.56022 153.936 7.15906C154.311 7.75791 154.498 8.42065 154.498 9.14944C154.498 9.87715 154.311 10.541 153.936 11.1398C153.561 11.7387 152.978 12.2141 152.187 12.5682C151.394 12.9212 150.376 13.1053 149.128 13.1194H149.023Z" fill="#D6D0BE"/>
<path d="M161.397 5.80977V12.4999H165.053C165.671 12.4999 166.231 12.3472 166.735 12.043C167.24 11.7387 167.643 11.3337 167.944 10.8301C168.246 10.3255 168.396 9.76561 168.396 9.14944C168.396 8.53327 168.246 7.97341 167.944 7.46877C167.643 6.96414 167.24 6.56239 166.735 6.26134C166.231 5.96029 165.671 5.80977 165.053 5.80977H161.397ZM165.012 13.1194L171.539 20.2611H168.721L162.174 13.1194H161.397V20.2503H159.306V5.18927H159.727V5.17952H165.117C166.365 5.1936 167.384 5.37661 168.175 5.73072C168.967 6.08374 169.55 6.56022 169.925 7.15906C170.3 7.75791 170.487 8.42065 170.487 9.14944C170.487 9.87715 170.3 10.541 169.925 11.1398C169.55 11.7387 168.967 12.2141 168.175 12.5682C167.384 12.9212 166.365 13.1053 165.117 13.1194H165.012Z" fill="#D6D0BE"/>
<path d="M178.215 12.8042H183.134L180.675 6.08266L178.215 12.8042ZM182.493 5.18927L188 20.2503H185.857L183.355 13.4237H177.985L175.495 20.2503H174.822L180.328 5.18927H180.35H182.493Z" fill="#D6D0BE"/>
<path d="M42.222 31.1995C42.222 31.1302 42.2838 31.0674 42.3542 31.0674H43C43.077 31.0674 43.1322 31.1302 43.1322 31.1995V33.0404H45.399V31.1995C45.399 31.1302 45.4543 31.0674 45.5312 31.0674H46.1705C46.2399 31.0674 46.3027 31.1302 46.3027 31.1995V35.7986C46.3027 35.8679 46.2399 35.9307 46.1705 35.9307H45.5312C45.4543 35.9307 45.399 35.8679 45.399 35.7986V33.8808H43.1322V35.7986C43.1322 35.8679 43.077 35.9307 43 35.9307H42.3542C42.2838 35.9307 42.222 35.8679 42.222 35.7986V31.1995Z" fill="#D49C55"/>
<path d="M51.0422 31.1995C51.0422 31.1302 51.0986 31.0674 51.1744 31.0674H54.0036C54.0805 31.0674 54.1358 31.1302 54.1358 31.1995V31.7691C54.1358 31.8384 54.0805 31.9012 54.0036 31.9012H51.9459V33.0404H53.6633C53.7327 33.0404 53.7955 33.1032 53.7955 33.1725V33.7486C53.7955 33.8255 53.7327 33.8808 53.6633 33.8808H51.9459V35.0969H54.0036C54.0805 35.0969 54.1358 35.1597 54.1358 35.229V35.7986C54.1358 35.8679 54.0805 35.9307 54.0036 35.9307H51.1744C51.0986 35.9307 51.0422 35.8679 51.0422 35.7986V31.1995Z" fill="#D49C55"/>
<path d="M60.9763 34.2695L60.2807 32.7416H60.2601L59.5785 34.2695H60.9763ZM57.9727 35.7499L60.1344 31.0739C60.155 31.0327 60.1907 30.9981 60.2525 30.9981H60.3229C60.3923 30.9981 60.4194 31.0327 60.44 31.0739L62.5822 35.7499C62.6233 35.8397 62.5681 35.9307 62.464 35.9307H61.8594C61.7543 35.9307 61.7056 35.8885 61.6568 35.7921L61.3166 35.0416H59.2383L58.897 35.7921C58.8699 35.8614 58.807 35.9307 58.6954 35.9307H58.0908C57.9868 35.9307 57.9304 35.8397 57.9727 35.7499Z" fill="#D49C55"/>
<path d="M66.6888 31.1995C66.6888 31.1302 66.7452 31.0674 66.821 31.0674H67.4603C67.5297 31.0674 67.5925 31.1302 67.5925 31.1995V35.0969H69.3663C69.4422 35.0969 69.4974 35.1597 69.4974 35.229V35.7986C69.4974 35.8679 69.4422 35.9307 69.3663 35.9307H66.821C66.7452 35.9307 66.6888 35.8679 66.6888 35.7986V31.1995Z" fill="#D49C55"/>
<path d="M74.0505 31.9012H72.9865C72.9106 31.9012 72.8543 31.8384 72.8543 31.7691V31.1995C72.8543 31.1291 72.9106 31.0674 72.9865 31.0674H76.0248C76.1017 31.0674 76.157 31.1291 76.157 31.1995V31.7691C76.157 31.8384 76.1017 31.9012 76.0248 31.9012H74.9607V35.7986C74.9607 35.8679 74.899 35.9307 74.8296 35.9307H74.1827C74.1134 35.9307 74.0505 35.8679 74.0505 35.7986V31.9012Z" fill="#D49C55"/>
<path d="M80.3547 31.1995C80.3547 31.1302 80.4175 31.0674 80.4869 31.0674H81.1338C81.2107 31.0674 81.266 31.1302 81.266 31.1995V33.0404H83.5317V31.1995C83.5317 31.1302 83.588 31.0674 83.6639 31.0674H84.3043C84.3726 31.0674 84.4354 31.1302 84.4354 31.1995V35.7986C84.4354 35.8679 84.3726 35.9307 84.3043 35.9307H83.6639C83.588 35.9307 83.5317 35.8679 83.5317 35.7986V33.8808H81.266V35.7986C81.266 35.8679 81.2107 35.9307 81.1338 35.9307H80.4869C80.4175 35.9307 80.3547 35.8679 80.3547 35.7986V31.1995Z" fill="#D49C55"/>
<path d="M90.1078 33.5895L88.5215 31.2688C88.4662 31.1778 88.5215 31.0674 88.6331 31.0674H89.3428C89.3981 31.0674 89.4328 31.102 89.4545 31.1302L90.5662 32.7275L91.6779 31.1302C91.6996 31.102 91.7343 31.0674 91.7895 31.0674H92.5058C92.6174 31.0674 92.6726 31.1778 92.6174 31.2688L91.0115 33.5819V35.7986C91.0115 35.8679 90.9487 35.9307 90.8793 35.9307H90.24C90.1631 35.9307 90.1078 35.8679 90.1078 35.7986V33.5895Z" fill="#D49C55"/>
<path d="M102.223 31.102C102.23 31.0457 102.271 30.9981 102.348 30.9981H102.459C102.516 30.9981 102.557 31.0252 102.577 31.0674L104.106 34.3464H104.128L105.657 31.0674C105.679 31.0252 105.713 30.9981 105.775 30.9981H105.887C105.963 30.9981 106.005 31.0457 106.011 31.102L106.832 35.7715C106.853 35.8679 106.798 35.9307 106.707 35.9307H106.074C106.011 35.9307 105.956 35.8744 105.942 35.8267L105.532 33.1931H105.512L104.294 35.9231C104.281 35.9654 104.239 36 104.176 36H104.051C103.988 36 103.954 35.9654 103.933 35.9231L102.703 33.1931H102.682L102.278 35.8267C102.271 35.8744 102.216 35.9307 102.154 35.9307H101.528C101.438 35.9307 101.382 35.8679 101.395 35.7715L102.223 31.102Z" fill="#D49C55"/>
<path d="M113.63 34.2695L112.934 32.7416H112.914L112.233 34.2695H113.63ZM110.626 35.7499L112.789 31.0739C112.81 31.0327 112.844 30.9981 112.906 30.9981H112.976C113.046 30.9981 113.073 31.0327 113.095 31.0739L115.236 35.7499C115.277 35.8397 115.222 35.9307 115.118 35.9307H114.513C114.409 35.9307 114.36 35.8885 114.311 35.7921L113.97 35.0416H111.892L111.552 35.7921C111.523 35.8614 111.461 35.9307 111.35 35.9307H110.744C110.64 35.9307 110.585 35.8397 110.626 35.7499Z" fill="#D49C55"/>
<path d="M121.387 33.2841C121.755 33.2841 122.075 32.9635 122.075 32.5748C122.075 32.2066 121.755 31.9012 121.387 31.9012H120.254V33.2841H121.387ZM119.343 31.1995C119.343 31.1302 119.399 31.0674 119.476 31.0674H121.464C122.298 31.0674 122.979 31.7344 122.979 32.5607C122.979 33.1996 122.555 33.7216 121.95 33.9641L122.903 35.7293C122.952 35.8192 122.903 35.9307 122.785 35.9307H122.054C121.992 35.9307 121.957 35.896 121.943 35.8679L121.019 34.027H120.247V35.7986C120.247 35.8679 120.184 35.9307 120.115 35.9307H119.476C119.399 35.9307 119.343 35.8679 119.343 35.7986V31.1995Z" fill="#D49C55"/>
<path d="M127.448 31.2341C127.448 31.1432 127.518 31.0674 127.614 31.0674H128.226C128.316 31.0674 128.393 31.1432 128.393 31.2341V33.1097L130.145 31.1367C130.174 31.102 130.215 31.0674 130.278 31.0674H130.973C131.104 31.0674 131.175 31.2136 131.084 31.3175L129.269 33.3599L131.216 35.687C131.285 35.7769 131.23 35.9307 131.091 35.9307H130.333C130.264 35.9307 130.221 35.9025 130.208 35.882L128.393 33.6447V35.7639C128.393 35.8538 128.316 35.9307 128.226 35.9307H127.614C127.518 35.9307 127.448 35.8538 127.448 35.7639V31.2341Z" fill="#D49C55"/>
<path d="M135.456 31.1995C135.456 31.1302 135.511 31.0674 135.588 31.0674H138.417C138.494 31.0674 138.55 31.1302 138.55 31.1995V31.7691C138.55 31.8384 138.494 31.9012 138.417 31.9012H136.36V33.0404H138.076C138.145 33.0404 138.208 33.1032 138.208 33.1725V33.7486C138.208 33.8255 138.145 33.8808 138.076 33.8808H136.36V35.0969H138.417C138.494 35.0969 138.55 35.1597 138.55 35.229V35.7986C138.55 35.8679 138.494 35.9307 138.417 35.9307H135.588C135.511 35.9307 135.456 35.8679 135.456 35.7986V31.1995Z" fill="#D49C55"/>
<path d="M143.671 31.9012H142.609C142.532 31.9012 142.476 31.8384 142.476 31.7691V31.1995C142.476 31.1291 142.532 31.0674 142.609 31.0674H145.646C145.723 31.0674 145.778 31.1291 145.778 31.1995V31.7691C145.778 31.8384 145.723 31.9012 145.646 31.9012H144.583V35.7986C144.583 35.8679 144.52 35.9307 144.451 35.9307H143.804C143.734 35.9307 143.671 35.8679 143.671 35.7986V31.9012Z" fill="#D49C55"/>
<path d="M100.035 10.2681C96.8899 12.0397 94.9091 15.2798 94.7693 18.8815C97.9875 18.6725 100.543 15.9891 100.543 12.7198C100.543 11.8654 100.372 11.0424 100.035 10.2681ZM94.3641 19.6893C94.1441 19.6893 93.9675 19.5117 93.9675 19.2919C93.9675 15.0913 96.2907 11.2882 100.032 9.36819C100.228 9.26748 100.468 9.34436 100.569 9.53929C101.079 10.5323 101.337 11.6022 101.337 12.7198C101.337 16.563 98.2096 19.6893 94.3641 19.6893Z" fill="#D49C55"/>
<path d="M88.6938 10.2681C88.3557 11.0424 88.1856 11.8654 88.1856 12.7198C88.1856 15.9891 90.7406 18.6725 93.9588 18.8815C93.819 15.2798 91.8383 12.0397 88.6938 10.2681ZM94.3641 19.6893C90.5185 19.6893 87.3914 16.563 87.3914 12.7198C87.3914 11.6022 87.6503 10.5312 88.1607 9.53929C88.2615 9.34436 88.4998 9.26748 88.696 9.36819C92.4375 11.2882 94.7607 15.0913 94.7607 19.2919C94.7607 19.5117 94.5829 19.6893 94.3641 19.6893Z" fill="#D49C55"/>
<path d="M94.3638 23.5228C94.1451 23.5228 93.9664 23.3452 93.9664 23.1265V19.2919C93.9664 19.0732 94.1451 18.8945 94.3638 18.8945C94.5826 18.8945 94.7612 19.0732 94.7612 19.2919V23.1265C94.7612 23.3452 94.5826 23.5228 94.3638 23.5228Z" fill="#D49C55"/>
<path d="M95.0315 25.4406H93.6977C93.4777 25.4406 93.3 25.2619 93.3 25.0432C93.3 24.8244 93.4777 24.6469 93.6977 24.6469H95.0315C95.2504 24.6469 95.4292 24.8244 95.4292 25.0432C95.4292 25.2619 95.2504 25.4406 95.0315 25.4406Z" fill="#D49C55"/>
<path d="M97.2648 12.3451C97.0892 12.3451 96.9289 12.2281 96.8812 12.0495C96.5789 10.9113 95.5441 10.1176 94.3641 10.1176C93.1852 10.1176 92.1504 10.9113 91.847 12.0495C91.7906 12.2617 91.5728 12.3862 91.3615 12.331C91.1491 12.2747 91.0235 12.057 91.0798 11.8448C91.4742 10.3601 92.8254 9.32379 94.3641 9.32379C95.9038 9.32379 97.2539 10.3612 97.6494 11.8459C97.7058 12.0581 97.579 12.2758 97.3666 12.3321C97.333 12.3408 97.2984 12.3451 97.2648 12.3451Z" fill="#D49C55"/>
<path d="M87.7695 23.5315C87.6969 23.5315 87.6232 23.512 87.5571 23.4708C83.8503 21.1209 81.6366 17.1023 81.6366 12.7209C81.6366 5.7069 87.3459 0 94.3641 0C101.382 0 107.092 5.7069 107.092 12.7209C107.092 17.0882 104.89 21.1004 101.2 23.4524C101.015 23.5694 100.769 23.5152 100.651 23.33C100.534 23.146 100.588 22.9001 100.772 22.7821C104.232 20.5773 106.297 16.8153 106.297 12.7209C106.297 6.1433 100.945 0.793767 94.3641 0.793767C87.7836 0.793767 82.4308 6.1433 82.4308 12.7209C82.4308 16.8283 84.5058 20.5968 87.983 22.7994C88.1683 22.9175 88.2235 23.1622 88.1054 23.3474C88.0307 23.4665 87.9017 23.5315 87.7695 23.5315Z" fill="#D49C55"/>
<path d="M100.958 23.5141C100.885 23.5141 100.811 23.4947 100.745 23.4524C98.8392 22.245 96.633 21.6061 94.3641 21.6061C92.0962 21.6061 89.889 22.245 87.983 23.4524C87.7977 23.5705 87.5517 23.5152 87.4347 23.33C87.3177 23.1449 87.3719 22.9001 87.5582 22.7821C89.591 21.4934 91.9445 20.8123 94.3641 20.8123C96.7837 20.8123 99.1372 21.4934 101.171 22.7821C101.356 22.9001 101.41 23.1449 101.293 23.33C101.218 23.4492 101.089 23.5141 100.958 23.5141Z" fill="#D49C55"/>
<path d="M98.9226 24.5711C98.8641 24.5711 98.8045 24.5581 98.7481 24.531C97.3774 23.8618 95.9016 23.5239 94.3641 23.5239C92.8265 23.5239 91.3518 23.8618 89.98 24.531C89.7828 24.6274 89.5455 24.544 89.449 24.348C89.3526 24.1509 89.4349 23.9126 89.6322 23.8163C91.1123 23.0951 92.704 22.729 94.3641 22.729C96.0241 22.729 97.6158 23.0951 99.0971 23.8163C99.2943 23.9126 99.3755 24.1509 99.2791 24.348C99.2108 24.4887 99.0689 24.5711 98.9226 24.5711Z" fill="#D49C55"/>
</svg>
